<svg width="29" height="29" viewBox="0 0 29 29" fill="none" xmlns="http://www.w3.org/2000/svg">
<g id="Iconly/Light-outline/Arrow - Down Circle">
<g id="Arrow - Down Circle">
<path id="Arrow - Down Circle_2" fill-rule="evenodd" clip-rule="evenodd" d="M14.5002 2.41699C7.82672 2.41699 2.41687 7.82725 2.41687 14.5003C2.41687 21.1734 7.82672 26.5837 14.5002 26.5837C21.1729 26.5837 26.5835 21.173 26.5835 14.5003C26.5835 7.82765 21.1729 2.41699 14.5002 2.41699ZM14.5002 4.22949C20.1719 4.22949 24.771 8.82867 24.771 14.5003C24.771 20.172 20.1719 24.7712 14.5002 24.7712C8.82777 24.7712 4.22937 20.1724 4.22937 14.5003C4.22937 8.82823 8.82777 4.22949 14.5002 4.22949ZM10.8466 12.0301C10.4924 11.7661 9.98884 11.7943 9.6664 12.1154C9.31173 12.4685 9.31049 13.0423 9.66364 13.397L13.8578 17.6092L13.9595 17.6974C14.3149 17.962 14.8201 17.9326 15.1422 17.6092L19.3363 13.397L19.4238 13.2951C19.6863 12.9398 19.656 12.4364 19.3335 12.1154L19.2317 12.0278C18.8763 11.7653 18.3729 11.7957 18.0519 12.1181L14.4988 15.6845L10.948 12.1181L10.8466 12.0301Z" fill="white"/>
</g>
</g>
</svg>
