<svg width="20" height="20" viewBox="0 0 20 20" fill="none" xmlns="http://www.w3.org/2000/svg">
<g id="Iconly/Light-outline/Chart">
<g id="Chart">
<path id="Chart_2" fill-rule="evenodd" clip-rule="evenodd" d="M13.6323 1.66675H6.36765C3.54654 1.66675 1.66666 3.68333 1.66666 6.57772V13.4224C1.66666 16.3195 3.54159 18.3334 6.36765 18.3334H13.6323C16.4584 18.3334 18.3333 16.3195 18.3333 13.4224V6.57772C18.3333 3.68062 16.4584 1.66675 13.6323 1.66675ZM6.36765 2.82954H13.6323C15.7969 2.82954 17.1705 4.30498 17.1705 6.57772V13.4224C17.1705 15.6952 15.7969 17.1706 13.6323 17.1706H6.36765C4.20309 17.1706 2.82945 15.6952 2.82945 13.4224V6.57772C2.82945 4.30799 4.20768 2.82954 6.36765 2.82954ZM10.6056 5.98253C10.5671 5.69875 10.3239 5.48002 10.0295 5.48002C9.70843 5.48002 9.44813 5.74032 9.44813 6.06142V13.924L9.45343 14.0029C9.49193 14.2867 9.73518 14.5054 10.0295 14.5054C10.3506 14.5054 10.6109 14.2451 10.6109 13.924V6.06142L10.6056 5.98253ZM6.98804 8.52717C6.94954 8.24339 6.70629 8.02466 6.41195 8.02466C6.09085 8.02466 5.83055 8.28496 5.83055 8.60606V13.924L5.83586 14.0029C5.87436 14.2867 6.11761 14.5054 6.41195 14.5054C6.73305 14.5054 6.99335 14.2451 6.99335 13.924V8.60606L6.98804 8.52717ZM13.588 10.8348C13.8824 10.8348 14.1256 11.0536 14.1641 11.3373L14.1694 11.4162V13.924C14.1694 14.2451 13.9091 14.5054 13.588 14.5054C13.2937 14.5054 13.0504 14.2867 13.0119 14.0029L13.0066 13.924V11.4162C13.0066 11.0951 13.2669 10.8348 13.588 10.8348Z" fill="white"/>
</g>
</g>
</svg>
